<svg width="512" height="512" viewBox="0 0 512 512" fill="none" xmlns="http://www.w3.org/2000/svg">
<path d="M190.56 329.07C199.19 346.37 312.96 346.19 321.49 329.07C330.01 311.97 273.59 209.29 256.03 209.27C238.46 209.27 181.93 311.77 190.56 329.07V329.07Z" fill="url(#paint0_linear_1_4)"/>
<path d="M58.75 417.03C84.72 469.18 427.61 468.58 453.3 417.03C478.99 365.48 308.93 56.08 256.03 56.08C203.11 56.08 32.78 364.88 58.75 417.03V417.03ZM126.79 371.78C109.77 337.61 221.39 135.28 256.05 135.28C290.72 135.28 402.15 337.98 385.31 371.78C368.48 405.58 143.81 405.95 126.79 371.78V371.78Z" fill="url(#paint1_linear_1_4)"/>
<defs>
<linearGradient id="paint0_linear_1_4" x1="126.15" y1="219.32" x2="457.68" y2="410.73" gradientUnits="userSpaceOnUse">
<stop stop-color="#AA5CC3"/>
<stop offset="1" stop-color="#00A4DC"/>
</linearGradient>
<linearGradient id="paint1_linear_1_4" x1="126.15" y1="219.32" x2="457.68" y2="410.73" gradientUnits="userSpaceOnUse">
<stop stop-color="#AA5CC3"/>
<stop offset="1" stop-color="#00A4DC"/>
</linearGradient>
</defs>
</svg>
