<svg width="511" height="512" viewBox="0 0 511 512" fill="none" xmlns="http://www.w3.org/2000/svg">
<path d="M453.527 115.061L265.697 450.629C261.819 457.557 251.856 457.598 247.92 450.704L56.3662 115.092C52.0772 107.58 58.5076 98.4793 67.0294 100.002L255.061 133.58C256.26 133.794 257.489 133.792 258.687 133.574L442.786 100.049C451.279 98.5027 457.74 107.533 453.527 115.061Z" fill="url(#paint0_linear_1_10)"/>
<path d="M344.149 56.0984L205.553 83.2793C204.445 83.4964 203.441 84.0757 202.699 84.9261C201.956 85.7765 201.517 86.8498 201.45 87.9772L192.925 232.09C192.878 232.88 193.016 233.671 193.328 234.399C193.639 235.126 194.116 235.771 194.721 236.282C195.325 236.793 196.04 237.157 196.809 237.343C197.578 237.529 198.379 237.533 199.15 237.355L237.738 228.443C241.348 227.609 244.611 230.792 243.868 234.425L232.404 290.612C231.633 294.393 235.179 297.626 238.868 296.504L262.703 289.257C266.397 288.135 269.948 291.377 269.166 295.162L250.948 383.418C249.808 388.939 257.144 391.949 260.203 387.216L262.248 384.055L375.184 158.478C377.077 154.701 373.814 150.394 369.671 151.196L329.95 158.868C326.218 159.588 323.043 156.109 324.095 152.455L350.02 62.5094C351.074 58.8464 347.885 55.3658 344.149 56.0984Z" fill="url(#paint1_linear_1_10)"/>
<defs>
<linearGradient id="paint0_linear_1_10" x1="-276.076" y1="2824.07" x2="19957.5" y2="30327.8" gradientUnits="userSpaceOnUse">
<stop stop-color="#41D1FF"/>
<stop offset="1" stop-color="#BD34FE"/>
</linearGradient>
<linearGradient id="paint1_linear_1_10" x1="8122.88" y1="803.852" x2="12285" y2="29331.1" gradientUnits="userSpaceOnUse">
<stop stop-color="#FFEA83"/>
<stop offset="0.08333" stop-color="#FFDD35"/>
<stop offset="1" stop-color="#FFA800"/>
</linearGradient>
</defs>
</svg>
